<?xml version="1.0" standalone="no"?>
<!DOCTYPE svg PUBLIC "-//W3C//DTD SVG 20010904//EN"
 "http://www.w3.org/TR/2001/REC-SVG-20010904/DTD/svg10.dtd">
<svg version="1.0" xmlns="http://www.w3.org/2000/svg"
 width="700.000000pt" height="700.000000pt" viewBox="0 0 700.000000 700.000000"
 preserveAspectRatio="xMidYMid meet">
<metadata>
Created by potrace 1.14, written by Peter Selinger 2001-2017
</metadata>
<g transform="translate(0.000000,700.000000) scale(0.100000,-0.100000)"
fill="#000000" stroke="none">
<path d="M2287 6994 c-1 -1 -220 -4 -487 -7 -267 -4 -501 -9 -520 -13 -196
-34 -427 -230 -502 -426 -32 -86 -37 -511 -37 -3323 -1 -2086 3 -2492 23
-2625 2 -14 7 -52 11 -85 11 -91 32 -143 89 -220 112 -149 303 -256 521 -291
39 -6 38 -9 36 126 -3 102 -5 106 -68 119 -145 29 -281 135 -346 271 -29 60
-56 164 -50 190 1 3 3 25 6 50 15 136 133 302 257 363 46 22 72 28 160 31 556
25 4262 26 4488 2 18 -2 35 -5 37 -7 1 -2 -14 -46 -36 -97 -56 -134 -72 -228
-66 -370 3 -65 8 -130 12 -147 12 -57 37 -135 61 -195 13 -33 24 -66 24 -74 0
-17 64 -17 -2292 -19 l-1418 -1 -1 -26 c-1 -25 0 -169 1 -204 0 -18 53 -18
1883 -13 1035 3 1936 8 2002 12 130 6 158 17 177 63 16 42 -6 105 -76 217
-147 235 -185 386 -137 537 30 95 91 222 144 301 25 37 48 80 51 95 23 111 25
358 26 2837 0 2422 -3 2763 -26 2868 -8 36 -48 56 -128 64 l-63 6 -1 -814 c-6
-2663 -14 -4774 -17 -4777 -2 -2 -286 -5 -632 -7 -345 -2 -1112 -6 -1703 -10
-591 -3 -1396 -8 -1789 -10 l-713 -4 -76 -48 c-79 -49 -132 -76 -139 -70 -13
14 -21 4248 -9 4777 8 356 17 416 81 510 46 68 82 100 180 157 l80 47 1930 0
1930 1 3 123 3 123 -1442 -3 c-792 -2 -1441 -4 -1442 -4z"/>
<path d="M5470 6877 l0 -124 129 1 c71 1 133 4 137 8 6 6 8 121 5 218 -1 19
-8 20 -136 20 l-135 0 0 -123z"/>
<path d="M1707 6560 c-10 -4 -12 -466 -12 -2187 l0 -2182 103 -3 c85 -2 105 0
111 12 5 11 7 4305 2 4355 -1 10 -180 15 -204 5z"/>
<path d="M4267 6294 c-157 -49 -285 -181 -312 -322 -11 -59 -17 -276 -17 -658
l-1 -422 -234 -303 c-394 -512 -487 -663 -529 -854 -13 -63 -12 -322 2 -396
39 -206 129 -353 309 -505 142 -120 276 -171 463 -180 341 -14 659 201 738
499 15 57 16 230 2 337 -27 204 -219 397 -442 444 -60 12 -183 14 -231 3 -11
-3 -33 -8 -50 -13 -56 -13 -147 -65 -198 -112 -65 -61 -111 -133 -141 -224
-21 -61 -25 -88 -22 -168 1 -52 7 -104 13 -115 5 -11 20 -40 32 -65 88 -183
332 -262 525 -170 38 18 79 47 99 70 38 45 84 133 92 178 6 38 -11 45 -112 44
-78 -1 -121 -17 -147 -54 -9 -12 -30 -30 -47 -39 -64 -33 -167 12 -211 91 -15
27 -18 50 -16 96 9 157 144 268 313 259 297 -16 439 -384 246 -638 -163 -215
-482 -254 -725 -88 -49 33 -144 131 -180 185 -68 104 -90 196 -90 371 0 176
27 257 145 433 113 167 300 412 352 460 l25 23 7 -28 c6 -23 10 -103 15 -316
0 -16 10 -17 107 -15 l108 3 0 347 0 346 31 39 c17 21 68 88 114 148 46 61 87
112 90 115 13 11 259 340 323 432 95 136 119 194 123 294 5 138 -37 245 -137
344 -118 115 -297 167 -432 124z m180 -232 c29 -2 95 -62 136 -121 37 -55 40
-107 8 -171 -29 -57 -168 -251 -286 -400 -92 -115 -121 -147 -130 -138 -16 16
-24 412 -11 563 20 226 81 284 283 267z"/>
<path d="M3883 2314 c-1 -211 -11 -259 -61 -306 -75 -69 -147 -81 -221 -34
-50 32 -86 79 -100 132 -13 49 -27 54 -158 54 l-85 0 7 -45 c26 -176 112 -302
252 -368 165 -76 355 -30 496 121 71 77 73 85 82 342 4 96 8 199 10 228 l3 53
-112 -2 -112 -1 -1 -174z"/>
<path d="M1697 1963 c-3 -7 -2 -243 2 -283 1 -12 14 -15 58 -13 32 1 81 2 108
2 l50 1 -2 142 c0 79 -1 146 -2 151 -1 4 -48 7 -105 7 -58 0 -106 -3 -109 -7z"/>
<path d="M2217 813 c-2 -5 -3 -53 -3 -108 l1 -100 1326 -2 1326 -1 1 109 1
109 -1324 0 c-728 0 -1326 -3 -1328 -7z"/>
<path d="M5195 713 l0 -108 150 0 150 0 1 108 0 107 -150 0 -151 0 0 -107z"/>
<path d="M1697 241 c-2 -3 -3 -58 -3 -121 l1 -115 110 0 110 0 0 105 c0 58 -1
112 -3 121 -3 14 -20 17 -108 16 -58 0 -106 -3 -107 -6z"/>
</g>
</svg>
